<svg xmlns="http://www.w3.org/2000/svg" x="0px" y="0px"
width="24" height="24"
viewBox="0 0 172 172"
style=" fill:#000000;"><g fill="none" fill-rule="nonzero" stroke="none" stroke-width="1" stroke-linecap="butt" stroke-linejoin="miter" stroke-miterlimit="10" stroke-dasharray="" stroke-dashoffset="0" font-family="none" font-weight="none" font-size="none" text-anchor="none" style="mix-blend-mode: normal"><path d="M0,172v-172h172v172z" fill="none"></path><g fill="#ffffff"><path d="M86,10.75c-6.7725,0 -11.55541,4.78375 -13.92041,10.75h-45.20459v134.375h118.25v-134.375h-45.20459c-2.365,-5.96625 -7.14791,-10.75 -13.92041,-10.75zM86,21.5c2.95625,0 5.375,2.41875 5.375,5.375v5.375h16.125v10.75h-43v-10.75h16.125v-5.375c0,-2.95625 2.41875,-5.375 5.375,-5.375zM37.625,32.25h16.125v21.5h64.5v-21.5h16.125v112.875h-96.75zM48.375,69.875v10.75h10.75v-10.75zM69.875,69.875v10.75h53.75v-10.75zM48.375,91.375v10.75h10.75v-10.75zM69.875,91.375v10.75h53.75v-10.75zM48.375,112.875v10.75h10.75v-10.75zM69.875,112.875v10.75h53.75v-10.75z"></path></g></g></svg>