<svg xmlns="http://www.w3.org/2000/svg" x="0px" y="0px"
width="30" height="20"
viewBox="0 0 172 172"
style=" fill:#000000;"><g fill="none" fill-rule="nonzero" stroke="none" stroke-width="1" stroke-linecap="butt" stroke-linejoin="miter" stroke-miterlimit="10" stroke-dasharray="" stroke-dashoffset="0" font-family="none" font-weight="none" font-size="none" text-anchor="none" style="mix-blend-mode: normal"><path d="M0,172v-172h172v172z" fill="none"></path><g fill="#000000"><path d="M20.82813,150.16406h130.34375c1.29873,0 2.35156,-1.05283 2.35156,-2.35156c0,-1.29873 -1.05283,-2.35156 -2.35156,-2.35156h-8.39844v-85.32812h-13.10156v85.32813h-17.13281v-24.85937h-13.10156v24.85938h-17.13281v-48.375h-13.10156v48.375h-17.13281v-71.89062h-13.10156v71.89063h-15.78906v-121.27344c0,-1.29873 -1.05283,-2.35156 -2.35156,-2.35156c-1.29873,0 -2.35156,1.05283 -2.35156,2.35156v123.625c0,1.29873 1.05283,2.35156 2.35156,2.35156z"></path></g></g></svg>