<svg xmlns="http://www.w3.org/2000/svg" x="0px" y="0px" width="70" height="70" viewBox="0 0 172 172" style=" fill:#000000;">
    <g fill="none" fill-rule="nonzero" stroke="none" stroke-width="1" stroke-linecap="butt" stroke-linejoin="miter" stroke-miterlimit="10" stroke-dasharray="" stroke-dashoffset="0" font-family="none" font-weight="none" font-size="none" text-anchor="none" style="mix-blend-mode: normal">
        <path d="M0,172v-172h172v172z" fill="none"></path>
        <g>
            <path d="M150.5,68.08333h-129v-35.83333c0,-5.93758 4.81242,-10.75 10.75,-10.75h107.5c5.93758,0 10.75,4.81242 10.75,10.75z" fill="#455a64"></path>
            <path d="M21.5,57.33333h129v82.41667c0,5.93758 -4.81242,10.75 -10.75,10.75h-107.5c-5.93758,0 -10.75,-4.81242 -10.75,-10.75z" fill="#bbdefb"></path>
            <path d="M39.41667,32.25c-3.95804,0 -7.16667,3.20863 -7.16667,7.16667c0,3.95804 3.20863,7.16667 7.16667,7.16667c3.95804,0 7.16667,-3.20863 7.16667,-7.16667c0,-3.95804 -3.20863,-7.16667 -7.16667,-7.16667z" fill="#8bc34a"></path>
            <path d="M60.91667,32.25c-3.95804,0 -7.16667,3.20863 -7.16667,7.16667c0,3.95804 3.20863,7.16667 7.16667,7.16667c3.95804,0 7.16667,-3.20863 7.16667,-7.16667c0,-3.95804 -3.20863,-7.16667 -7.16667,-7.16667z" fill="#ffeb3b"></path>
            <path d="M139.75,43c0,1.98158 -1.60175,3.58333 -3.58333,3.58333h-53.75c-1.98158,0 -3.58333,-1.60175 -3.58333,-3.58333v-7.16667c0,-1.98158 1.60175,-3.58333 3.58333,-3.58333h53.75c1.98158,0 3.58333,1.60175 3.58333,3.58333z" fill="#fafafa"></path>
            <path d="M110.811,119.09208l-19.73342,-28.66667c-0.65217,-1.04992 -2.3865,-1.04992 -3.03867,0l-19.73342,28.66667c-0.34758,0.54825 -0.31533,1.247 0,1.81675c0.31533,0.56975 0.91733,0.9245 1.5695,0.9245h12.54167c0,26.42708 -8.51758,37.58917 -32.25,35.83333c5.74767,2.39008 13.30133,3.53317 18.36458,3.569c22.77925,0.16125 28.21875,-18.18542 28.21875,-39.40233h12.54167c0.65217,0 1.25417,-0.35475 1.5695,-0.9245c0.31533,-0.56975 0.29742,-1.2685 -0.05017,-1.81675z" fill="#3f51b5"></path>
        </g>
    </g>
</svg>