<svg xmlns="http://www.w3.org/2000/svg" x="0px" y="0px"
width="30" height="30"
viewBox="0 0 172 172"
style=" fill:#000000;"><g fill="none" fill-rule="nonzero" stroke="none" stroke-width="1" stroke-linecap="butt" stroke-linejoin="miter" stroke-miterlimit="10" stroke-dasharray="" stroke-dashoffset="0" font-family="none" font-weight="none" font-size="none" text-anchor="none" style="mix-blend-mode: normal"><path d="M0,172v-172h172v172z" fill="none"></path><path d="M86,172c-47.49649,0 -86,-38.50351 -86,-86v0c0,-47.49649 38.50351,-86 86,-86v0c47.49649,0 86,38.50351 86,86v0c0,47.49649 -38.50351,86 -86,86z" fill="#e74c3c"></path><g fill="#ffffff"><path d="M66.1125,22.93333c-15.8068,0 -28.66667,12.85987 -28.66667,28.66667c0,15.8068 12.85987,28.66667 28.66667,28.66667c15.8068,0 28.66667,-12.85987 28.66667,-28.66667c0,-15.8068 -12.85987,-28.66667 -28.66667,-28.66667zM117.7125,86c-17.415,0 -31.53333,14.11833 -31.53333,31.53333c0,17.415 14.11833,31.53333 31.53333,31.53333c17.415,0 31.53333,-14.11833 31.53333,-31.53333c0,-17.415 -14.11833,-31.53333 -31.53333,-31.53333zM35.21745,91.73333c-5.88527,0 -10.67161,5.11561 -10.67161,11.40508v4.36159c0,9.40553 4.86012,17.57939 13.68945,23.01172c7.42753,4.57233 17.32788,7.08828 27.87721,7.08828c6.278,0 12.70368,-0.92947 18.57175,-2.83867c-2.69467,-5.15713 -4.23841,-11.00733 -4.23841,-17.228c0,-10.02187 3.97553,-19.10347 10.41406,-25.8zM97.64583,114.66667h40.13333c1.5824,0 2.86667,1.28427 2.86667,2.86667c0,1.5824 -1.28427,2.86667 -2.86667,2.86667h-40.13333c-1.5824,0 -2.86667,-1.28427 -2.86667,-2.86667c0,-1.5824 1.28427,-2.86667 2.86667,-2.86667z"></path></g></g></svg>