<svg xmlns="http://www.w3.org/2000/svg" x="0px" y="0px"
width="30" height="30"
viewBox="0 0 172 172"
style=" fill:#000000;"><g fill="none" fill-rule="nonzero" stroke="none" stroke-width="1" stroke-linecap="butt" stroke-linejoin="miter" stroke-miterlimit="10" stroke-dasharray="" stroke-dashoffset="0" font-family="none" font-weight="none" font-size="none" text-anchor="none" style="mix-blend-mode: normal"><path d="M0,172v-172h172v172z" fill="none"></path><path d="M86,172c-47.49649,0 -86,-38.50351 -86,-86v0c0,-47.49649 38.50351,-86 86,-86v0c47.49649,0 86,38.50351 86,86v0c0,47.49649 -38.50351,86 -86,86z" fill="#2ecc71"></path><g fill="#ffffff"><path d="M69.07612,118.162c-1.69312,-1.69313 -6.7725,-1.69313 -6.7725,-1.69313l-0.71958,-2.15704c-0.61291,-1.83873 -2.05715,-3.28297 -3.89588,-3.89588l-2.15704,-0.71958c0,0 0.84656,-4.23281 -1.69312,-6.7725l42.32813,-42.32812l13.545,16.93125zM119.86987,67.36825l-15.23812,-15.23812l7.92382,-7.92383c0,0 5.92594,-2.53969 11.85187,3.38625c5.92594,5.92594 3.38625,11.85188 3.38625,11.85188zM47.0655,116.46888l-3.12043,7.57843c-1.03958,2.52276 1.48487,5.04721 4.00763,4.00763l7.57843,-3.12043z"></path></g></g></svg>