<svg xmlns="http://www.w3.org/2000/svg" x="0px" y="0px" width="70" height="70" viewBox="0 0 172 172" style=" fill:#000000;">
    <defs>
        <radialGradient cx="86.5805" cy="86.62888" r="101.13869" gradientUnits="userSpaceOnUse" id="color-1_dvAyoTiivlWj_gr1">
            <stop offset="0" stop-color="#adecfd"></stop>
            <stop offset="0.193" stop-color="#b9effd"></stop>
            <stop offset="0.703" stop-color="#d5f6ff"></stop>
            <stop offset="1" stop-color="#dff8ff"></stop>
        </radialGradient>
        <linearGradient x1="69.97469" y1="42.74965" x2="64.37334" y2="10.99254" gradientUnits="userSpaceOnUse" id="color-2_dvAyoTiivlWj_gr2">
            <stop offset="0" stop-color="#fca853"></stop>
            <stop offset="0.612" stop-color="#fdcb49"></stop>
            <stop offset="1" stop-color="#fddc44"></stop>
        </linearGradient>
        <linearGradient x1="51.44598" y1="46.02049" x2="46.77687" y2="19.54874" gradientUnits="userSpaceOnUse" id="color-3_dvAyoTiivlWj_gr3">
            <stop offset="0" stop-color="#fca853"></stop>
            <stop offset="0.612" stop-color="#fdcb49"></stop>
            <stop offset="1" stop-color="#fddc44"></stop>
        </linearGradient>
        <linearGradient x1="88.50168" y1="39.48457" x2="83.83257" y2="13.01282" gradientUnits="userSpaceOnUse" id="color-4_dvAyoTiivlWj_gr4">
            <stop offset="0" stop-color="#fca853"></stop>
            <stop offset="0.612" stop-color="#fdcb49"></stop>
            <stop offset="1" stop-color="#fddc44"></stop>
        </linearGradient>
        <linearGradient x1="-73.36069" y1="97.954" x2="116.38756" y2="97.954" gradientUnits="userSpaceOnUse" id="color-5_dvAyoTiivlWj_gr5">
            <stop offset="0" stop-color="#ffa284"></stop>
            <stop offset="0.847" stop-color="#ffb986"></stop>
            <stop offset="1" stop-color="#ffbd86"></stop>
            <stop offset="1" stop-color="#ffbd86"></stop>
        </linearGradient>
    </defs>
    <g fill="none" fill-rule="nonzero" stroke="none" stroke-width="1" stroke-linecap="butt" stroke-linejoin="miter" stroke-miterlimit="10" stroke-dasharray="" stroke-dashoffset="0" font-family="none" font-weight="none" font-size="none" text-anchor="none" style="mix-blend-mode: normal">
        <path d="M0,172v-172h172v172z" fill="none"></path>
        <g>
            <path d="M169.205,135.82625c-0.69875,3.92375 -4.4075,6.61125 -8.41188,6.61125h-3.57438c-3.95063,0 -7.06813,3.35938 -6.69188,7.39063c0.3225,3.49375 3.5475,6.04688 7.06813,6.04688h0.9675c4.91813,0 8.84187,4.4075 7.955,9.51375c-0.69875,3.92375 -4.4075,6.61125 -8.41188,6.61125h-147.35562c-4.91812,0 -8.84187,-4.4075 -7.955,-9.51375c0.69875,-3.92375 4.4075,-6.61125 8.41188,-6.61125h0.88687c3.95062,0 7.06812,-3.35937 6.69188,-7.39062c-0.3225,-3.49375 -3.5475,-6.04687 -7.06812,-6.04687h-3.655c-4.91812,0 -8.84187,-4.4075 -7.955,-9.51375c0.69875,-3.92375 4.4075,-6.61125 8.41188,-6.61125h8.94938c3.95062,0 7.06812,-3.35937 6.69188,-7.39062c-0.3225,-3.49375 -3.5475,-6.04687 -7.06812,-6.04687h-6.3425c-5.16,0 -9.48687,-3.655 -10.50812,-8.51938c-0.16125,-0.72562 -0.24187,-1.45125 -0.24187,-2.23062c0,-2.95625 1.20937,-5.64375 3.14437,-7.60562c1.96188,-1.935 4.64938,-3.14438 7.60563,-3.14438h37.625v-16.125h-34.9375c-6.93375,0 -12.65812,-5.2675 -13.35687,-12.04v-0.02688c-0.05375,-0.45687 -0.08063,-0.91375 -0.08063,-1.37062c0,-3.70875 1.505,-7.06812 3.92375,-9.51375c2.44563,-2.41875 5.805,-3.92375 9.51375,-3.92375h9.40625c2.58,0 4.945,-1.04812 6.63813,-2.76813c1.72,-1.69312 2.76812,-4.05812 2.76812,-6.63812c0,-5.18688 -4.21937,-9.40625 -9.40625,-9.40625h-1.34375c-7.8475,0 -14.13625,-6.74562 -13.38375,-14.75438c0.67188,-6.9875 6.93375,-12.12062 13.94813,-12.12062h128.43562c7.8475,0 14.13625,6.74562 13.38375,14.75438c-0.67188,6.9875 -6.93375,12.12063 -13.94813,12.12063h-11.52937c-5.18687,0 -9.40625,4.21937 -9.40625,9.40625c0,2.58 1.04812,4.945 2.76812,6.63812c1.69312,1.72 4.05812,2.76813 6.63813,2.76813h13.4375c4.3,0 7.65938,4.085 6.47687,8.54625c-0.80625,2.95625 -3.655,4.89125 -6.71875,4.89125h-3.3325c-4.3,0 -8.19688,3.17125 -8.4925,7.47125c-0.18812,2.4725 0.7525,4.70313 2.33813,6.28875c1.45125,1.45125 3.46688,2.365 5.6975,2.365h2.6875c6.28875,0 11.31438,5.40187 10.69625,11.79813c-0.5375,5.59 -5.53625,9.70188 -11.15312,9.70188h-29.10563v26.875h40.3125c4.91813,0 8.84187,4.4075 7.955,9.51375z" fill="url(#color-1_dvAyoTiivlWj_gr1)"></path>
            <path d="M69.98788,42.75544c2.924,-0.516 4.87512,-3.30294 4.35913,-6.22694l-3.73294,-21.17212c-0.516,-2.924 -3.30294,-4.87513 -6.22694,-4.35913c-2.924,0.516 -4.87513,3.30294 -4.35913,6.22694l3.73294,21.17212c0.51331,2.92131 3.30294,4.87512 6.22694,4.35912z" fill="url(#color-2_dvAyoTiivlWj_gr2)"></path>
            <path d="M54.10744,45.5585c0.55363,-0.09675 1.10456,-0.28487 1.62594,-0.56975c2.60956,-1.41362 3.57975,-4.67625 2.16613,-7.28581l-8.09475,-14.94787c-1.41362,-2.60687 -4.66819,-3.58781 -7.28581,-2.16612c-2.60956,1.41362 -3.57975,4.67625 -2.16613,7.28581l8.09475,14.94787c1.12875,2.0855 3.44269,3.12556 5.65987,2.73588z" fill="url(#color-3_dvAyoTiivlWj_gr3)"></path>
            <path d="M85.86831,39.95775c2.21719,-0.38969 4.03394,-2.15806 4.38331,-4.50694l2.494,-16.813c0.43538,-2.93744 -1.591,-5.67062 -4.52844,-6.106c-2.9455,-0.44075 -5.67331,1.59369 -6.106,4.52844l-2.494,16.813c-0.43537,2.93744 1.591,5.67062 4.52844,6.106c0.58588,0.08869 1.16906,0.07525 1.72269,-0.0215z" fill="url(#color-4_dvAyoTiivlWj_gr4)"></path>
            <path d="M142.26281,112.6815c-3.23037,-2.92669 -8.32319,-2.46981 -11.40037,0.60737l-1.57756,1.57756c-1.57756,1.57756 -4.12262,1.57756 -5.70019,0c-1.57756,-1.57756 -1.57756,-4.12262 0,-5.70019l5.70019,-5.70019c3.24919,-3.24919 3.15512,-8.58925 -0.3225,-11.68794c-3.23037,-2.92669 -8.32319,-2.46981 -11.40037,0.60738l-3.47763,3.47763c-1.57756,1.57756 -4.12262,1.57756 -5.70019,0c-1.57756,-1.57756 -1.57756,-4.12262 0,-5.70019l1.58831,-1.58831c3.08794,-3.09063 3.53137,-8.17269 0.59931,-11.41113c-3.12556,-3.45344 -8.43875,-3.55556 -11.69063,-0.30369l-1.90006,1.90006c-1.57756,1.57756 -4.12262,1.57756 -5.70019,0c-1.57756,-1.57756 -1.57756,-4.12262 0,-5.70019l26.60356,-26.60356c3.24919,-3.24919 3.15512,-8.58925 -0.3225,-11.68794c-3.23037,-2.92669 -8.32319,-2.46981 -11.40037,0.60738l-48.83725,48.83187l-9.30681,-26.36975c-1.69581,-4.80256 -6.81012,-7.83944 -11.696,-6.39625c-5.20837,1.53725 -8.00606,7.10038 -6.22425,12.15825l8.09206,22.92706c3.06375,8.68062 4.62788,17.81813 4.62788,27.02281v0c0,11.18538 4.44244,21.91119 12.35175,29.8205l9.503,9.503c13.64444,13.64444 35.76525,13.64444 49.40969,0l28.50631,-28.50631c3.24919,-3.24919 3.15244,-8.58925 -0.32519,-11.68525z" fill="url(#color-5_dvAyoTiivlWj_gr5)"></path>
        </g>
    </g>
</svg>