<svg xmlns="http://www.w3.org/2000/svg" x="0px" y="0px" width="90" height="90" viewBox="0 0 172 172" style=" fill:#000000;">
    <g fill="none" fill-rule="nonzero" stroke="none" stroke-width="1" stroke-linecap="butt" stroke-linejoin="miter" stroke-miterlimit="10" stroke-dasharray="" stroke-dashoffset="0" font-family="none" font-weight="none" font-size="none" text-anchor="none" style="mix-blend-mode: normal">
        <path d="M0,172v-172h172v172z" fill="none"></path>
        <path d="M86,129.86c-24.22321,0 -43.86,-19.63679 -43.86,-43.86v0c0,-24.22321 19.63679,-43.86 43.86,-43.86h0c24.22321,0 43.86,19.63679 43.86,43.86v0c0,24.22321 -19.63679,43.86 -43.86,43.86z" fill="#cccccc"></path>
        <g fill="#000000">
            <path d="M86,30.96c-30.39584,0 -55.04,24.64416 -55.04,55.04c0,30.39584 24.64416,55.04 55.04,55.04c30.39584,0 55.04,-24.64416 55.04,-55.04c0,-30.39584 -24.64416,-55.04 -55.04,-55.04zM107.58944,101.10389c1.79339,1.79339 1.79339,4.69216 0,6.48555c-0.8944,0.8944 -2.06859,1.34389 -3.24277,1.34389c-1.17419,0 -2.34837,-0.44949 -3.24277,-1.34389l-15.10389,-15.10389l-15.10389,15.10389c-0.8944,0.8944 -2.06859,1.34389 -3.24277,1.34389c-1.17419,0 -2.34837,-0.44949 -3.24277,-1.34389c-1.79339,-1.79339 -1.79339,-4.69216 0,-6.48555l15.10389,-15.10389l-15.10389,-15.10389c-1.79339,-1.79339 -1.79339,-4.69216 0,-6.48555c1.79339,-1.79339 4.69216,-1.79339 6.48555,0l15.10389,15.10389l15.10389,-15.10389c1.79339,-1.79339 4.69216,-1.79339 6.48555,0c1.79339,1.79339 1.79339,4.69216 0,6.48555l-15.10389,15.10389z"></path>
        </g>
    </g>
</svg>