<svg xmlns="http://www.w3.org/2000/svg" x="0px" y="0px" width="70" height="70" viewBox="0 0 172 172" style=" fill:#000000;">
    <g fill="none" fill-rule="nonzero" stroke="none" stroke-width="1" stroke-linecap="butt" stroke-linejoin="miter" stroke-miterlimit="10" stroke-dasharray="" stroke-dashoffset="0" font-family="none" font-weight="none" font-size="none" text-anchor="none" style="mix-blend-mode: normal">
        <path d="M0,172v-172h172v172z" fill="none"></path>
        <g>
            <path d="M22.36,46.44c-1.89986,0 -3.44,1.54014 -3.44,3.44c0,1.89986 1.54014,3.44 3.44,3.44c1.89986,0 3.44,-1.54014 3.44,-3.44c0,-1.89986 -1.54014,-3.44 -3.44,-3.44z" fill="#00a5a5"></path>
            <path d="M132.44,20.64c-0.94993,0 -1.72,0.77007 -1.72,1.72c0,0.94993 0.77007,1.72 1.72,1.72c0.94993,0 1.72,-0.77007 1.72,-1.72c0,-0.94993 -0.77007,-1.72 -1.72,-1.72z" fill="#f1bc19"></path>
            <path d="M86,22.36c-35.1474,0 -63.64,28.4926 -63.64,63.64c0,35.1474 28.4926,63.64 63.64,63.64c35.1474,0 63.64,-28.4926 63.64,-63.64c0,-35.1474 -28.4926,-63.64 -63.64,-63.64z" fill="#c0e5e4"></path>
            <path d="M142.76,18.92c-3.79972,0 -6.88,3.08028 -6.88,6.88c0,3.79972 3.08028,6.88 6.88,6.88c3.79972,0 6.88,-3.08028 6.88,-6.88c0,-3.79972 -3.08028,-6.88 -6.88,-6.88z" fill="#f1bc19"></path>
            <path d="M149.64,37.84c-1.89986,0 -3.44,1.54014 -3.44,3.44c0,1.89986 1.54014,3.44 3.44,3.44c1.89986,0 3.44,-1.54014 3.44,-3.44c0,-1.89986 -1.54014,-3.44 -3.44,-3.44z" fill="#00a5a5"></path>
            <path d="M139.32,127.28c-1.89986,0 -3.44,1.54014 -3.44,3.44c0,1.89986 1.54014,3.44 3.44,3.44c1.89986,0 3.44,-1.54014 3.44,-3.44c0,-1.89986 -1.54014,-3.44 -3.44,-3.44zM25.8,101.48c-3.79972,0 -6.88,3.08028 -6.88,6.88c0,3.79972 3.08028,6.88 6.88,6.88c3.79972,0 6.88,-3.08028 6.88,-6.88c0,-3.79972 -3.08028,-6.88 -6.88,-6.88z" fill="#fbcd59"></path>
            <path d="M43,146.2c-1.89986,0 -3.44,1.54014 -3.44,3.44c0,1.89986 1.54014,3.44 3.44,3.44c1.89986,0 3.44,-1.54014 3.44,-3.44c0,-1.89986 -1.54014,-3.44 -3.44,-3.44z" fill="#00a5a5"></path>
            <path d="M31.82,87.72c-2.37482,0 -4.3,1.92518 -4.3,4.3c0,2.37482 1.92518,4.3 4.3,4.3c2.37482,0 4.3,-1.92518 4.3,-4.3c0,-2.37482 -1.92518,-4.3 -4.3,-4.3z" fill="#ffffff"></path>
            <path d="M36.12,113.52c-0.94993,0 -1.72,0.77007 -1.72,1.72c0,0.94993 0.77007,1.72 1.72,1.72c0.94993,0 1.72,-0.77007 1.72,-1.72c0,-0.94993 -0.77007,-1.72 -1.72,-1.72z" fill="#f1bc19"></path>
            <path d="M137.6,56.76c-0.94993,0 -1.72,0.77007 -1.72,1.72c0,0.94993 0.77007,1.72 1.72,1.72c0.94993,0 1.72,-0.77007 1.72,-1.72c0,-0.94993 -0.77007,-1.72 -1.72,-1.72z" fill="#ffffff"></path>
            <g>
                <path d="M108.36,46.44v-0.00172l-0.01032,79.1114l-21.35552,-15.1532c-0.29756,-0.21156 -0.645,-0.31648 -0.99416,-0.31648c-0.34916,0 -0.6966,0.10492 -0.99588,0.31648l-21.36412,15.1618v-79.11828h44.72" fill="#ee3e54"></path>
                <path d="M107.672,47.128v77.09728l-20.2788,-14.38952c-0.41624,-0.29584 -0.90472,-0.44376 -1.3932,-0.44376c-0.48848,0 -0.97696,0.14792 -1.3932,0.44376l-20.2788,14.38952v-77.09728h43.344M108.36,44.72h-44.72c-0.94944,0 -1.72,0.76884 -1.72,1.71828v79.12c0,1.0148 0.8342,1.72172 1.72688,1.72172c0.33884,0 0.68628,-0.10148 0.99932,-0.3268l21.3538,-15.1532l21.35552,15.1532c0.31304,0.22532 0.66048,0.3268 0.99932,0.3268c0.89096,0 1.72516,-0.70692 1.72516,-1.72172v-79.12c0,-0.94944 -0.77056,-1.71828 -1.72,-1.71828z" fill="#472b29"></path>
            </g>
            <g>
                <path d="M86,57.62c-8.0744,0 -14.62,6.5456 -14.62,14.62c0,8.0744 6.5456,14.62 14.62,14.62c8.0744,0 14.62,-6.5456 14.62,-14.62c0,-8.0744 -6.5456,-14.62 -14.62,-14.62z" fill="#fbcd59"></path>
                <path d="M86,58.48c7.58692,0 13.76,6.17308 13.76,13.76c0,7.58692 -6.17308,13.76 -13.76,13.76c-7.58692,0 -13.76,-6.17308 -13.76,-13.76c0,-7.58692 6.17308,-13.76 13.76,-13.76M86,56.76c-8.53636,0 -15.48,6.94536 -15.48,15.48c0,8.53464 6.94364,15.48 15.48,15.48c8.53636,0 15.48,-6.94536 15.48,-15.48c0,-8.53464 -6.94364,-15.48 -15.48,-15.48z" fill="#472b29"></path>
                <path d="M85.99828,64.07l0.01892,0.01204l2.2704,4.58552l0.09976,0.20296l0.2236,0.03268l5.08776,0.76712l-3.6722,3.57072l-0.16168,0.15824l0.03784,0.2236l0.83592,5.0654l-4.5408,-2.38048l-0.19952,-0.10492l-0.19952,0.10492l-4.57004,2.35984l0.86688,-5.04476l0.03784,-0.2236l-0.16168,-0.15824l-3.66016,-3.60168l5.074,-0.73616l0.2236,-0.03268l0.09976,-0.20296l2.2704,-4.58724c0.00516,-0.00688 0.01204,-0.01032 0.01892,-0.01032" fill="#f1bc19"></path>
                <path d="M85.99828,65.01428l1.90404,3.84592l0.20124,0.4042l0.4472,0.06536l4.25184,0.61576l-3.07364,2.98764l-0.32508,0.31648l0.0774,0.4472l0.72756,4.22776l-3.80808,-1.99692l-0.39904,-0.20984l-0.39904,0.20984l-3.80464,1.9952l0.72756,-4.22776l0.0774,-0.4472l-0.32508,-0.31648l-3.07364,-2.98764l4.25012,-0.61576l0.4472,-0.06536l0.20124,-0.4042l1.89544,-3.8442M85.99828,63.64c-0.172,0 -0.32852,0.09632 -0.4042,0.25112l-2.2704,4.58552l-5.074,0.73616c-0.17028,0.0258 -0.3096,0.14276 -0.36464,0.30616c-0.05504,0.1634 -0.0086,0.34228 0.11352,0.46096l3.6722,3.57072l-0.86688,5.04476c-0.02924,0.16856 0.04128,0.33884 0.1806,0.4386c0.0774,0.05676 0.172,0.086 0.26488,0.086c0.07224,0 0.14276,-0.01548 0.20812,-0.04988l4.5408,-2.38048l4.5408,2.38048c0.06708,0.03268 0.13932,0.04988 0.21156,0.04988c0.09288,0 0.18404,-0.02752 0.26144,-0.086c0.14104,-0.10148 0.20984,-0.27004 0.1806,-0.4386l-0.86688,-5.04476l3.6722,-3.57072c0.12212,-0.1204 0.16684,-0.29756 0.11352,-0.46096c-0.05332,-0.1634 -0.19436,-0.28036 -0.36464,-0.30616l-5.07572,-0.73616l-2.2704,-4.58552c-0.07396,-0.1548 -0.23048,-0.25112 -0.40248,-0.25112z" fill="#472b29"></path>
                <g fill="#472b29">
                    <path d="M97.20236,75.68c-0.03612,0 -0.07396,-0.00516 -0.1118,-0.01376c-0.22876,-0.06192 -0.36464,-0.29756 -0.30444,-0.52804c0.26144,-0.97352 0.39388,-1.94876 0.39388,-2.8982c0,-6.03548 -4.73,-10.93576 -10.76548,-11.15764c-0.23736,-0.0086 -0.42312,-0.20812 -0.41452,-0.44548c0.0086,-0.23736 0.15652,-0.42484 0.44548,-0.41452c6.5016,0.23908 11.59452,5.51776 11.59452,12.01764c0,1.02512 -0.14276,2.07604 -0.42312,3.1218c-0.0516,0.19092 -0.22532,0.3182 -0.41452,0.3182zM85.57,84.25764c-0.00516,0 -0.01032,0 -0.01548,0c-0.87548,-0.03268 -1.77676,-0.172 -2.67632,-0.4128c-0.22876,-0.06192 -0.36464,-0.29756 -0.30272,-0.52632c0.06192,-0.22876 0.29584,-0.36292 0.52632,-0.30272c0.83592,0.2236 1.67356,0.35432 2.48368,0.38356c0.23736,0.0086 0.42312,0.20812 0.41452,0.44548c-0.0086,0.23048 -0.19952,0.4128 -0.43,0.4128zM80.41,82.8266c-0.07052,0 -0.14276,-0.0172 -0.20812,-0.05332c-0.26832,-0.14792 -0.52116,-0.3182 -0.77228,-0.48848l-0.1204,-0.08084c-0.19608,-0.13244 -0.2494,-0.39904 -0.11696,-0.59684c0.13416,-0.1978 0.40248,-0.24596 0.59684,-0.11696l0.12212,0.08256c0.23048,0.15652 0.46096,0.31304 0.7052,0.4472c0.20812,0.11524 0.2838,0.37668 0.17028,0.5848c-0.07912,0.14104 -0.22532,0.22188 -0.37668,0.22188zM77.78872,80.84c-0.11008,0 -0.22016,-0.04128 -0.30444,-0.12556c-2.27212,-2.27556 -3.52428,-5.28384 -3.52428,-8.47444c0,-3.64124 1.6254,-7.04856 4.45824,-9.34992c0.18404,-0.14964 0.45236,-0.12212 0.60544,0.06364c0.14964,0.18404 0.1204,0.4558 -0.06364,0.60544c-2.6316,2.13624 -4.14004,5.29932 -4.14004,8.68084c0,2.96012 1.16272,5.75512 3.27144,7.86556c0.16856,0.16856 0.16856,0.44032 0,0.60888c-0.08256,0.08428 -0.19264,0.12556 -0.30272,0.12556z"></path>
                </g>
            </g>
            <g fill="#472b29">
                <path d="M67.51,99.76c-0.23736,0 -0.43,-0.19264 -0.43,-0.43v-49.02c0,-0.23736 0.19264,-0.43 0.43,-0.43c0.23736,0 0.43,0.19264 0.43,0.43v49.02c0,0.23736 -0.19264,0.43 -0.43,0.43zM67.51,103.2c-0.23736,0 -0.43,-0.19264 -0.43,-0.43v-0.86c0,-0.23736 0.19264,-0.43 0.43,-0.43c0.23736,0 0.43,0.19264 0.43,0.43v0.86c0,0.23736 -0.19264,0.43 -0.43,0.43zM67.51,106.64c-0.23736,0 -0.43,-0.19264 -0.43,-0.43v-0.86c0,-0.23736 0.19264,-0.43 0.43,-0.43c0.23736,0 0.43,0.19264 0.43,0.43v0.86c0,0.23736 -0.19264,0.43 -0.43,0.43zM67.51,110.08c-0.23736,0 -0.43,-0.19264 -0.43,-0.43v-0.86c0,-0.23736 0.19264,-0.43 0.43,-0.43c0.23736,0 0.43,0.19264 0.43,0.43v0.86c0,0.23736 -0.19264,0.43 -0.43,0.43zM67.51,113.52c-0.23736,0 -0.43,-0.19264 -0.43,-0.43v-0.86c0,-0.23736 0.19264,-0.43 0.43,-0.43c0.23736,0 0.43,0.19264 0.43,0.43v0.86c0,0.23736 -0.19264,0.43 -0.43,0.43zM67.51,116.96c-0.23736,0 -0.43,-0.19264 -0.43,-0.43v-0.86c0,-0.23736 0.19264,-0.43 0.43,-0.43c0.23736,0 0.43,0.19264 0.43,0.43v0.86c0,0.23736 -0.19264,0.43 -0.43,0.43z"></path>
            </g>
            <g fill="#472b29">
                <path d="M104.49,116.96c-0.23736,0 -0.43,-0.19264 -0.43,-0.43v-49.02c0,-0.23736 0.19264,-0.43 0.43,-0.43c0.23736,0 0.43,0.19264 0.43,0.43v49.02c0,0.23736 -0.19264,0.43 -0.43,0.43zM104.49,65.36c-0.23736,0 -0.43,-0.19264 -0.43,-0.43v-0.86c0,-0.23736 0.19264,-0.43 0.43,-0.43c0.23736,0 0.43,0.19264 0.43,0.43v0.86c0,0.23736 -0.19264,0.43 -0.43,0.43zM104.49,61.92c-0.23736,0 -0.43,-0.19264 -0.43,-0.43v-0.86c0,-0.23736 0.19264,-0.43 0.43,-0.43c0.23736,0 0.43,0.19264 0.43,0.43v0.86c0,0.23736 -0.19264,0.43 -0.43,0.43zM104.49,58.48c-0.23736,0 -0.43,-0.19264 -0.43,-0.43v-0.86c0,-0.23736 0.19264,-0.43 0.43,-0.43c0.23736,0 0.43,0.19264 0.43,0.43v0.86c0,0.23736 -0.19264,0.43 -0.43,0.43zM104.49,55.04c-0.23736,0 -0.43,-0.19264 -0.43,-0.43v-0.86c0,-0.23736 0.19264,-0.43 0.43,-0.43c0.23736,0 0.43,0.19264 0.43,0.43v0.86c0,0.23736 -0.19264,0.43 -0.43,0.43zM104.49,51.6c-0.23736,0 -0.43,-0.19264 -0.43,-0.43v-0.86c0,-0.23736 0.19264,-0.43 0.43,-0.43c0.23736,0 0.43,0.19264 0.43,0.43v0.86c0,0.23736 -0.19264,0.43 -0.43,0.43z"></path>
            </g>
        </g>
    </g>
</svg>