<svg xmlns="http://www.w3.org/2000/svg" x="0px" y="0px"
width="30" height="30"
viewBox="0 0 172 172"
style=" fill:#000000;"><g transform=""><g fill="none" fill-rule="nonzero" stroke="none" stroke-width="1" stroke-linecap="butt" stroke-linejoin="miter" stroke-miterlimit="10" stroke-dasharray="" stroke-dashoffset="0" font-family="none" font-weight="none" font-size="none" text-anchor="none" style="mix-blend-mode: normal"><path d="M0,172v-172h172v172z" fill="none"></path><path d="M86,172c-47.49649,0 -86,-38.50351 -86,-86v0c0,-47.49649 38.50351,-86 86,-86v0c47.49649,0 86,38.50351 86,86v0c0,47.49649 -38.50351,86 -86,86z" fill="#2ecc71"></path><g fill="#ffffff"><path d="M74.62992,34.4l1.84765,68.8h18.98047l1.91484,-68.8zM86.03499,116.1c-7.0649,0 -11.47226,4.1014 -11.47226,10.78359c0,6.622 4.41167,10.71641 11.47226,10.71641c7.0606,0 11.41348,-4.09441 11.41348,-10.71641c0,-6.6822 -4.34857,-10.78359 -11.41348,-10.78359z"></path></g></g></g></svg>