<svg xmlns="http://www.w3.org/2000/svg" x="0px" y="0px"
width="24" height="24"
viewBox="0 0 172 172"
style=" fill:#000000;"><g fill="none" fill-rule="nonzero" stroke="none" stroke-width="1" stroke-linecap="butt" stroke-linejoin="miter" stroke-miterlimit="10" stroke-dasharray="" stroke-dashoffset="0" font-family="none" font-weight="none" font-size="none" text-anchor="none" style="mix-blend-mode: normal"><path d="M0,172v-172h172v172z" fill="none"></path><g fill="#ffffff"><path d="M86,0c-9.43139,0 -17.2,7.76861 -17.2,17.2h-11.46667h-11.46667c-9.43116,0 -17.2,7.76884 -17.2,17.2v103.2c0,9.43116 7.76884,17.2 17.2,17.2h80.26667c9.43116,0 17.2,-7.76884 17.2,-17.2v-103.2c0,-9.43116 -7.76884,-17.2 -17.2,-17.2h-11.46667h-11.46667c0,-9.43139 -7.76861,-17.2 -17.2,-17.2zM86,11.46667c3.23434,0 5.73333,2.49899 5.73333,5.73333c0,3.23434 -2.49899,5.73333 -5.73333,5.73333c-3.23434,0 -5.73333,-2.49899 -5.73333,-5.73333c0,-3.23434 2.49899,-5.73333 5.73333,-5.73333zM45.86667,28.66667h11.46667c0,6.33533 5.13133,11.46667 11.46667,11.46667h34.4c6.33533,0 11.46667,-5.13133 11.46667,-11.46667h11.46667c3.23951,0 5.73333,2.49383 5.73333,5.73333v103.2c0,3.23951 -2.49383,5.73333 -5.73333,5.73333h-80.26667c-3.23951,0 -5.73333,-2.49383 -5.73333,-5.73333v-103.2c0,-3.23951 2.49383,-5.73333 5.73333,-5.73333zM103.14401,57.27734c-2.33302,0.00061 -4.43306,1.41473 -5.31096,3.57628c-0.8779,2.16155 -0.3586,4.6395 1.31331,6.26668l1.67969,1.67969l-1.67969,1.67969c-1.49778,1.43802 -2.10113,3.5734 -1.57735,5.5826c0.52378,2.0092 2.09284,3.57826 4.10204,4.10204c2.0092,0.52378 4.14458,-0.07957 5.5826,-1.57735l1.67969,-1.67969l1.67969,1.67969c1.43802,1.49778 3.5734,2.10113 5.5826,1.57735c2.0092,-0.52378 3.57826,-2.09284 4.10204,-4.10204c0.52378,-2.0092 -0.07957,-4.14458 -1.57735,-5.5826l-1.67969,-1.67969l1.67969,-1.67969c1.69569,-1.64828 2.20555,-4.16851 1.28389,-6.3463c-0.92166,-2.17779 -3.08575,-3.56638 -5.44951,-3.49667c-1.48951,0.04438 -2.90324,0.6669 -3.94167,1.73568l-1.67969,1.67969l-1.67969,-1.67969c-1.07942,-1.10959 -2.56163,-1.73559 -4.10964,-1.73568zM57.33333,63.06667c-2.06765,-0.02924 -3.99087,1.05709 -5.03322,2.843c-1.04236,1.78592 -1.04236,3.99474 0,5.78066c1.04236,1.78592 2.96558,2.87225 5.03322,2.843h22.93333c2.06765,0.02924 3.99087,-1.05709 5.03322,-2.843c1.04236,-1.78592 1.04236,-3.99474 0,-5.78066c-1.04236,-1.78592 -2.96558,-2.87225 -5.03322,-2.843zM103.14401,97.41067c-2.33303,0.00061 -4.43306,1.41473 -5.31096,3.57628c-0.8779,2.16155 -0.35859,4.6395 1.31331,6.26669l1.67969,1.67969l-1.67969,1.67969c-1.49778,1.43802 -2.10113,3.5734 -1.57735,5.5826c0.52378,2.0092 2.09284,3.57826 4.10204,4.10204c2.0092,0.52378 4.14458,-0.07957 5.5826,-1.57735l1.67969,-1.67969l1.67969,1.67969c1.43802,1.49778 3.5734,2.10113 5.5826,1.57735c2.0092,-0.52378 3.57826,-2.09284 4.10204,-4.10204c0.52378,-2.0092 -0.07957,-4.14458 -1.57735,-5.5826l-1.67969,-1.67969l1.67969,-1.67969c1.69569,-1.64828 2.20555,-4.16851 1.28389,-6.3463c-0.92166,-2.17779 -3.08576,-3.56638 -5.44952,-3.49667c-1.48951,0.04438 -2.90324,0.66691 -3.94167,1.73568l-1.67969,1.67969l-1.67969,-1.67969c-1.07942,-1.10959 -2.56163,-1.73559 -4.10964,-1.73568zM57.33333,103.2c-2.06765,-0.02924 -3.99087,1.05709 -5.03322,2.843c-1.04236,1.78592 -1.04236,3.99474 0,5.78066c1.04236,1.78592 2.96558,2.87225 5.03322,2.843h22.93333c2.06765,0.02924 3.99087,-1.05709 5.03322,-2.843c1.04236,-1.78592 1.04236,-3.99474 0,-5.78066c-1.04236,-1.78592 -2.96558,-2.87225 -5.03322,-2.843z"></path></g></g></svg>