<svg xmlns="http://www.w3.org/2000/svg" x="0px" y="0px"
width="24" height="24"
viewBox="0 0 172 172"
style=" fill:#000000;"><g transform="translate(6.02,6.02) scale(0.93,0.93)"><g fill="none" fill-rule="nonzero" stroke="none" stroke-width="none" stroke-linecap="butt" stroke-linejoin="none" stroke-miterlimit="10" stroke-dasharray="" stroke-dashoffset="0" font-family="none" font-weight="none" font-size="none" text-anchor="none" style="mix-blend-mode: normal"><g id="original-icon 1" fill="#ffffff" stroke="#ffffff" stroke-width="13" stroke-linejoin="round"><path d="M96.75,14.33333v15.73307c18.53885,4.77861 32.25,21.56799 32.25,41.60026v43l14.33333,14.33333v7.16667h-114.66667v-7.16667l14.33333,-14.33333v-43c0,-20.03227 13.71115,-36.82165 32.25,-41.60026v-15.73307zM100.33333,143.33333c0,7.88333 -6.45,14.33333 -14.33333,14.33333c-7.88333,0 -14.33333,-6.45 -14.33333,-14.33333z"></path></g><path d="M0,172v-172h172v172z" fill="none" stroke="none" stroke-width="1" stroke-linejoin="miter"></path><g id="original-icon" fill="#ffffff" stroke="none" stroke-width="1" stroke-linejoin="miter"><path d="M75.25,14.33333v15.73307c-18.53885,4.77861 -32.25,21.56799 -32.25,41.60026v43l-14.33333,14.33333v7.16667h114.66667v-7.16667l-14.33333,-14.33333v-43c0,-20.03227 -13.71115,-36.82165 -32.25,-41.60026v-15.73307zM71.66667,143.33333c0,7.88333 6.45,14.33333 14.33333,14.33333c7.88333,0 14.33333,-6.45 14.33333,-14.33333z"></path></g><path d="" fill="none" stroke="none" stroke-width="1" stroke-linejoin="miter"></path></g></g></svg>