<svg xmlns="http://www.w3.org/2000/svg" x="0px" y="0px" width="70" height="70" viewBox="0 0 172 172" style=" fill:#000000;">
    <g fill="none" fill-rule="nonzero" stroke="none" stroke-width="1" stroke-linecap="butt" stroke-linejoin="miter" stroke-miterlimit="10" stroke-dasharray="" stroke-dashoffset="0" font-family="none" font-weight="none" font-size="none" text-anchor="none" style="mix-blend-mode: normal">
        <path d="M0,172v-172h172v172z" fill="none"></path>
        <g>
            <path d="M65.575,119.325h32.25v27.95h-32.25z" fill="#b0c1d4"></path>
            <path d="M96.75,120.4v25.8h-30.1v-25.8h30.1M98.9,118.25h-34.4v30.1h34.4z" fill="#66798f"></path>
            <path d="M1.075,24.725h161.25v105.35h-161.25z" fill="#c2e8ff"></path>
            <path d="M161.25,25.8v103.2h-159.1v-103.2h159.1M163.4,23.65h-163.4v107.5h163.4z" fill="#66798f"></path>
            <path d="M0,113.95h163.4v17.2h-163.4z" fill="#66798f"></path>
            <path d="M35.518,155.875c0.56545,-6.08665 5.66955,-10.74355 11.782,-10.75h68.8c6.11245,0.00645 11.21655,4.66335 11.782,10.75z" fill="#b0c1d4"></path>
            <path d="M116.1,146.2c5.1084,0 9.51375,3.5948 10.535,8.6h-89.87c1.02125,-5.0052 5.4266,-8.6 10.535,-8.6h68.8M116.1,144.05h-68.8c-7.1251,0 -12.9,5.7749 -12.9,12.9h94.6c0,-7.1251 -5.7749,-12.9 -12.9,-12.9z" fill="#66798f"></path>
            <path d="M141.9,120.4h12.9v4.3h-12.9z" fill="#ffeea3"></path>
            <rect x="5.5" y="46" transform="scale(2.15,2.15)" width="32.5" height="1" fill="#a16a4a"></rect>
            <path d="M167.9365,15.56815v0c-2.6746,-2.6746 -7.0133,-2.6746 -9.6879,0l-43.5934,43.59555l9.6879,9.6879l43.5934,-43.59555c2.67675,-2.6746 2.67675,-7.01115 0,-9.6879z" fill="#ffc49c"></path>
            <path d="M124.3431,69.92445c-0.2752,0 -0.5504,-0.10535 -0.7611,-0.3139l-9.6879,-9.6879c-0.41925,-0.41925 -0.41925,-1.1008 0,-1.52005l43.59555,-43.5934c3.0917,-3.0917 8.11625,-3.0917 11.20795,0c3.0917,3.08955 3.0917,8.1184 0,11.20795l-43.5934,43.5934c-0.2107,0.2107 -0.4859,0.3139 -0.7611,0.3139zM116.17525,59.1637l8.16785,8.16785l42.83445,-42.83445c1.09005,-1.09005 1.6899,-2.5413 1.6899,-4.08285c0,-1.54155 -0.59985,-2.9928 -1.6899,-4.08285c-2.1801,-2.18225 -5.98775,-2.18225 -8.16785,0z" fill="#a16a4a"></path>
            <path d="M80.625,99.975c3.91515,-7.82815 6.17695,-19.2468 9.5675,-22.63305c2.1328,-2.1328 4.9665,-3.3067 7.9851,-3.3067c3.0186,0 5.8523,1.1739 7.9851,3.3067c4.4032,4.4032 4.4032,11.567 0,15.9702c-4.0377,4.51285 -14.7877,6.66285 -25.5377,6.66285z" fill="#f5ce85"></path>
            <path d="M80.625,101.05h-1.73935l0.7783,-1.5566c1.63615,-3.27015 2.9713,-7.16595 4.26345,-10.93275c1.81675,-5.29115 3.3841,-9.8599 5.50615,-11.9798c2.33705,-2.3349 5.44165,-3.62275 8.74405,-3.62275c3.3024,0 6.407,1.28785 8.74405,3.62275c2.33275,2.33275 3.61845,5.4395 3.61845,8.7462c0,3.3067 -1.2857,6.4113 -3.61845,8.74405c-4.5881,5.13635 -16.60015,6.9789 -26.29665,6.9789zM98.1776,75.11025c-2.7305,0 -5.29545,1.06425 -7.224,2.9928c-1.76945,1.7673 -3.33465,6.32745 -4.9923,11.1585c-1.118,3.2551 -2.2661,6.60265 -3.6292,9.62125c10.83815,-0.2279 19.7714,-2.6445 23.0265,-6.28445c1.9694,-1.97155 3.02935,-4.5365 3.02935,-7.26915c0,-2.73265 -1.05995,-5.2976 -2.9885,-7.22615c-1.9264,-1.9307 -4.49135,-2.9928 -7.22185,-2.9928z" fill="#967a44"></path>
            <g>
                <path d="M102.27765,73.40745l12.4528,-14.1685l9.53525,9.53525l-14.1685,12.4528z" fill="#dcd5f2"></path>
                <path d="M110.05205,82.69975l-9.24715,-9.24715l13.8761,-15.7853l11.15635,11.15635zM103.75255,73.36015l6.39625,6.39625l12.54955,-11.03165l-7.9163,-7.91415z" fill="#8b75a1"></path>
            </g>
        </g>
    </g>
</svg>