<svg xmlns="http://www.w3.org/2000/svg" x="0px" y="0px" width="70" height="70" viewBox="0 0 172 172" style=" fill:#000000;">
    <g fill="none" fill-rule="nonzero" stroke="none" stroke-width="1" stroke-linecap="butt" stroke-linejoin="miter" stroke-miterlimit="10" stroke-dasharray="" stroke-dashoffset="0" font-family="none" font-weight="none" font-size="none" text-anchor="none" style="mix-blend-mode: normal">
        <path d="M0,172v-172h172v172z" fill="none"></path>
        <g>
            <path d="M69.875,119.325h32.25v27.95h-32.25z" fill="#b0c1d4"></path>
            <path d="M101.05,120.4v25.8h-30.1v-25.8h30.1M103.2,118.25h-34.4v30.1h34.4v-30.1z" fill="#66798f"></path>
            <path d="M5.375,16.125h161.25v113.95h-161.25z" fill="#d9f2ff"></path>
            <path d="M165.55,17.2v111.8h-159.1v-111.8h159.1M167.7,15.05h-163.4v116.1h163.4v-116.1z" fill="#66798f"></path>
            <path d="M4.3,109.65h163.4v21.5h-163.4zM133.3,156.95h-94.6v0c0,-7.1251 5.7749,-12.9 12.9,-12.9h68.8c7.1251,0 12.9,5.7749 12.9,12.9z" fill="#66798f"></path>
            <path d="M146.2,118.25h12.9v4.3h-12.9z" fill="#ffeea3"></path>
            <path d="M26.88145,95.675c-1.24055,0 -2.4854,-0.5375 -3.3325,-1.44265c-0.67725,-0.7224 -1.0234,-1.5867 -0.9675,-2.4295l0.00215,-54.53475c-0.07095,-1.26205 0.46225,-2.0941 0.9202,-2.58c0.817,-0.8643 2.04895,-1.36095 3.37765,-1.36095h32.24355c2.37145,0 4.3,1.7673 4.3,3.94095v54.46595c0,2.17365 -1.92855,3.94095 -4.3,3.94095z" fill="#ffc49c"></path>
            <path d="M59.125,34.4c1.77805,0 3.225,1.2857 3.225,2.86595v54.46595c0,1.5824 -1.44695,2.8681 -3.225,2.8681h-32.24355c-0.94815,0 -1.9006,-0.4128 -2.54775,-1.10295c-0.473,-0.50525 -0.7138,-1.08145 -0.6794,-1.62755l0.0043,-0.0688v-0.0688v-54.46595v-0.06235l-0.0043,-0.06235c-0.0387,-0.65575 0.17415,-1.2341 0.6321,-1.71785c0.60415,-0.6407 1.57595,-1.0234 2.59505,-1.0234h32.24355M59.125,32.25h-32.24355c-2.967,0 -5.5427,2.0898 -5.375,5.01595v54.46595c-0.16555,2.6144 2.408,5.0181 5.375,5.0181h32.24355c2.967,0 5.375,-2.24675 5.375,-5.01595v-54.4681c0,-2.7692 -2.40585,-5.01595 -5.375,-5.01595z" fill="#a16a4a"></path>
            <g>
                <path d="M22.575,41.925h40.85v45.15h-40.85z" fill="#f2faff"></path>
                <path d="M62.35,43v43h-38.7v-43h38.7M64.5,40.85h-43v47.3h43v-47.3z" fill="#a16a4a"></path>
            </g>
            <g>
                <path d="M87.075,95.675c-1.1825,0 -2.3478,-0.51815 -3.1992,-1.42115c-0.7611,-0.80625 -1.16315,-1.83395 -1.10295,-2.8165l0.00215,-53.81235c-0.0774,-1.4577 0.5246,-2.4037 1.04275,-2.9498c0.8127,-0.85785 2.00165,-1.3502 3.25725,-1.3502h58.05c2.37145,0 4.3,1.92855 4.3,4.3v53.75c0,2.37145 -1.92855,4.3 -4.3,4.3z" fill="#ffc49c"></path>
                <path d="M145.125,34.4c1.77805,0 3.225,1.44695 3.225,3.225v53.75c0,1.77805 -1.44695,3.225 -3.225,3.225h-58.05c-0.88795,0 -1.7673,-0.39345 -2.4166,-1.08145c-0.55685,-0.59125 -0.85355,-1.32655 -0.8127,-2.01455l0.0043,-0.0645v-0.0645v-53.75v-0.05805l-0.00215,-0.05805c-0.05375,-1.0191 0.3784,-1.7028 0.75035,-2.09625c0.6106,-0.64285 1.5136,-1.01265 2.4768,-1.01265h58.05M145.125,32.25h-58.05c-2.96915,0 -5.5427,2.23815 -5.375,5.375v53.75c-0.1677,2.80145 2.40585,5.375 5.375,5.375h58.05c2.96915,0 5.375,-2.40585 5.375,-5.375v-53.75c0,-2.96915 -2.40585,-5.375 -5.375,-5.375z" fill="#a16a4a"></path>
            </g>
            <g>
                <path d="M82.775,41.925h66.65v45.15h-66.65z" fill="#f2faff"></path>
                <path d="M148.35,43v43h-64.5v-43h64.5M150.5,40.85h-68.8v47.3h68.8v-47.3z" fill="#a16a4a"></path>
            </g>
        </g>
    </g>
</svg>