<svg xmlns="http://www.w3.org/2000/svg" x="0px" y="0px" width="70" height="70" viewBox="0 0 172 172" style=" fill:#000000;">
    <defs>
        <linearGradient x1="16.5335" y1="27.73858" x2="153.854" y2="55.65992" gradientUnits="userSpaceOnUse" id="color-1_n0i8GliATitt_gr1">
            <stop offset="0" stop-color="#0077d2"></stop>
            <stop offset="1" stop-color="#0b59a2"></stop>
        </linearGradient>
        <linearGradient x1="57.33333" y1="41.20833" x2="150.5" y2="41.20833" gradientUnits="userSpaceOnUse" id="color-2_n0i8GliATitt_gr2">
            <stop offset="0" stop-color="#7dd8f3"></stop>
            <stop offset="1" stop-color="#45b0d0"></stop>
        </linearGradient>
        <linearGradient x1="24.19108" y1="37.324" x2="28.78133" y2="43.96392" gradientUnits="userSpaceOnUse" id="color-3_n0i8GliATitt_gr3">
            <stop offset="0" stop-color="#75daff"></stop>
            <stop offset="1" stop-color="#49bef1"></stop>
        </linearGradient>
        <linearGradient x1="42.10775" y1="37.324" x2="46.698" y2="43.96392" gradientUnits="userSpaceOnUse" id="color-4_n0i8GliATitt_gr4">
            <stop offset="0" stop-color="#75daff"></stop>
            <stop offset="1" stop-color="#49bef1"></stop>
        </linearGradient>
        <linearGradient x1="124.66775" y1="100.23658" x2="159.92417" y2="165.08775" gradientUnits="userSpaceOnUse" id="color-5_n0i8GliATitt_gr5">
            <stop offset="0" stop-color="#21ad64"></stop>
            <stop offset="1" stop-color="#088242"></stop>
        </linearGradient>
    </defs>
    <g fill="none" fill-rule="nonzero" stroke="none" stroke-width="1" stroke-linecap="butt" stroke-linejoin="miter" stroke-miterlimit="10" stroke-dasharray="" stroke-dashoffset="0" font-family="none" font-weight="none" font-size="none" text-anchor="none" style="mix-blend-mode: normal">
        <path d="M0,172v-172h172v172z" fill="none"></path>
        <g>
            <path d="M14.33333,136.16667v-82.41667h143.33333v82.41667c0,3.94167 -3.225,7.16667 -7.16667,7.16667h-129c-3.94167,0 -7.16667,-3.225 -7.16667,-7.16667z" fill="#50e6ff"></path>
            <path d="M157.66667,35.83333v17.91667h-143.33333v-17.91667c0,-3.94167 3.225,-7.16667 7.16667,-7.16667h129c3.94167,0 7.16667,3.225 7.16667,7.16667z" fill="url(#color-1_n0i8GliATitt_gr1)"></path>
            <path d="M59.125,46.58333h89.58333c0.989,0 1.79167,-0.80267 1.79167,-1.79167v-7.16667c0,-0.989 -0.80267,-1.79167 -1.79167,-1.79167h-89.58333c-0.989,0 -1.79167,0.80267 -1.79167,1.79167v7.16667c0,0.989 0.80267,1.79167 1.79167,1.79167z" fill="url(#color-2_n0i8GliATitt_gr2)"></path>
            <circle cx="7.5" cy="11.5" transform="scale(3.58333,3.58333)" r="1.5" fill="url(#color-3_n0i8GliATitt_gr3)"></circle>
            <circle cx="12.5" cy="11.5" transform="scale(3.58333,3.58333)" r="1.5" fill="url(#color-4_n0i8GliATitt_gr4)"></circle>
            <path d="M157.66667,105.2425v30.92417c0,3.94167 -3.225,7.16667 -7.16667,7.16667h-47.04917c-0.89583,-2.00667 -1.6125,-4.12083 -2.15,-6.30667c-0.645,-2.6875 -0.9675,-5.375 -0.9675,-8.02667v-16.125c0,-2.97417 2.40083,-5.375 5.375,-5.375c10.105,0 14.405,-2.93833 18.56167,-5.76917c3.58333,-2.43667 7.31,-4.98083 13.68833,-4.98083c6.37833,0 10.105,2.54417 13.68833,4.98083c1.8275,1.21833 3.655,2.50833 6.02,3.51167z" fill="#000000" opacity="0.05"></path>
            <path d="M157.66667,107.1775v28.98917c0,3.94167 -3.225,7.16667 -7.16667,7.16667h-45.0425c-1.00333,-2.15 -1.8275,-4.4075 -2.40083,-6.73667c-0.60917,-2.54417 -0.93167,-5.08833 -0.93167,-7.59667v-16.125c0,-1.97083 1.6125,-3.58333 3.58333,-3.58333c10.6425,0 15.3725,-3.225 19.565,-6.05583c3.51167,-2.43667 6.88,-4.69417 12.685,-4.69417c5.805,0 9.17333,2.2575 12.685,4.69417c2.00667,1.32583 4.15667,2.83083 7.02333,3.94167z" fill="#000000" opacity="0.07"></path>
            <path d="M170.20833,111.08333c-19.92692,0 -20.20642,-10.75 -32.25,-10.75c-12.04358,0 -12.32308,10.75 -32.25,10.75c-0.989,0 -1.79167,0.80267 -1.79167,1.79167c0,0 0,10.492 0,16.125c0,2.46892 0.31892,4.859 0.8815,7.16667c5.26033,21.51433 32.39333,35.66492 32.39333,35.66492c0,0 0.37983,0.16842 0.76683,0.16842c0.3655,0 0.76683,-0.16842 0.76683,-0.16842c0,0 27.133,-14.15417 32.39333,-35.66492c0.56258,-2.30767 0.8815,-4.69775 0.8815,-7.16667c0,-5.633 0,-16.125 0,-16.125c0,-0.989 -0.80267,-1.79167 -1.79167,-1.79167z" fill="url(#color-5_n0i8GliATitt_gr5)"></path>
        </g>
    </g>
</svg>