<svg xmlns="http://www.w3.org/2000/svg" x="0px" y="0px" width="90" height="90" viewBox="0 0 172 172" style=" fill:#000000;">
    <g fill="none" fill-rule="nonzero" stroke="none" stroke-width="1" stroke-linecap="butt" stroke-linejoin="miter" stroke-miterlimit="10" stroke-dasharray="" stroke-dashoffset="0" font-family="none" font-weight="none" font-size="none" text-anchor="none" style="mix-blend-mode: normal">
        <path d="M0,172v-172h172v172z" fill="none"></path>
        <g fill="#2ecc71">
            <path d="M86,17.2c-37.9948,0 -68.8,30.8052 -68.8,68.8c0,37.9948 30.8052,68.8 68.8,68.8c37.9948,0 68.8,-30.8052 68.8,-68.8c0,-37.9948 -30.8052,-68.8 -68.8,-68.8zM124.45347,72.85347l-43.344,43.344c-1.07787,1.07787 -2.53413,1.67987 -4.05347,1.67987c-1.51933,0 -2.98133,-0.602 -4.05347,-1.67987l-19.7972,-19.7972c-2.24173,-2.24173 -2.24173,-5.8652 0,-8.10693c2.24173,-2.24173 5.8652,-2.24173 8.10693,0l15.74373,15.74373l39.29053,-39.29053c2.24173,-2.24173 5.8652,-2.24173 8.10693,0c2.24173,2.24173 2.24173,5.8652 0,8.10693z"></path>
        </g>
    </g>
</svg>