<svg xmlns="http://www.w3.org/2000/svg" x="0px" y="0px"
width="24" height="24"
viewBox="0 0 172 172"
style=" fill:#000000;"><g fill="none" fill-rule="nonzero" stroke="none" stroke-width="1" stroke-linecap="butt" stroke-linejoin="miter" stroke-miterlimit="10" stroke-dasharray="" stroke-dashoffset="0" font-family="none" font-weight="none" font-size="none" text-anchor="none" style="mix-blend-mode: normal"><path d="M0,172v-172h172v172z" fill="none"></path><g fill="#ffffff"><path d="M40.03255,21.5l-14.33333,14.33333h-11.36589v14.33333h17.30078l18.53255,-18.53255zM64.5,35.83333v14.33333h93.16667v-14.33333zM40.03255,64.5l-14.33333,14.33333h-11.36589v14.33333h17.30078l18.53255,-18.53256zM64.5,78.83333v14.33333h93.16667v-14.33333zM28.66667,118.25c-5.93706,0 -10.75,4.81294 -10.75,10.75c0,5.93706 4.81294,10.75 10.75,10.75c5.93706,0 10.75,-4.81294 10.75,-10.75c0,-5.93706 -4.81294,-10.75 -10.75,-10.75zM64.5,121.83333v14.33333h93.16667v-14.33333z"></path></g></g></svg>